<svg width="14" height="20" viewBox="0 0 14 20" fill="none" xmlns="http://www.w3.org/2000/svg">
    <path fill-rule="evenodd" clip-rule="evenodd"
        d="M5.97971 1.26335C5.88856 1.35449 5.83736 1.4781 5.83736 1.607L5.84036 2.262H4.71936V1.607C4.71989 1.18096 4.88936 0.77252 5.19061 0.471264C5.49187 0.170008 5.90031 0.000529243 6.32635 0H7.97536C8.4014 0.000529243 8.80983 0.170008 9.11108 0.471264C9.41234 0.77252 9.58182 1.18096 9.58235 1.607V2.262H8.46135V1.607C8.46135 1.4781 8.41016 1.35449 8.31902 1.26335C8.22787 1.1722 8.10425 1.121 7.97536 1.121H6.32335C6.19445 1.121 6.07085 1.1722 5.97971 1.26335ZM13.4063 5.053L12.9893 3.802C12.9484 3.67918 12.8699 3.57235 12.7649 3.49661C12.6599 3.42088 12.5338 3.38008 12.4043 3.38H1.52431C1.39485 3.38008 1.2687 3.42088 1.16371 3.49661C1.05872 3.57235 0.980222 3.67918 0.939309 3.802L0.522309 5.053C0.500475 5.11877 0.494557 5.18879 0.505044 5.25729C0.51553 5.32579 0.542118 5.39082 0.582627 5.44704C0.623136 5.50327 0.676411 5.54908 0.738068 5.58071C0.799726 5.61234 0.868012 5.6289 0.93731 5.62901H12.9913C13.0606 5.6289 13.1289 5.61234 13.1905 5.58071C13.2522 5.54908 13.3055 5.50327 13.346 5.44704C13.3865 5.39082 13.4131 5.32579 13.4236 5.25729C13.4341 5.18879 13.4281 5.11877 13.4063 5.053ZM2.46326 18.382C2.4864 18.5899 2.58539 18.782 2.74129 18.9215C2.8972 19.061 3.09906 19.1381 3.30826 19.138H10.5493C10.7585 19.1381 10.9603 19.061 11.1162 18.9215C11.2721 18.782 11.3711 18.5899 11.3943 18.382L12.6863 6.75403H1.17126L2.46326 18.382Z"
        fill="#EB3B5B" />
</svg>
