<svg width="16" height="16" viewBox="0 0 16 16" fill="none" xmlns="http://www.w3.org/2000/svg">
    <path
        d="M2.4599 13.8135C2.39883 13.8134 2.33841 13.8009 2.28227 13.7769C2.22614 13.7528 2.17544 13.7176 2.13323 13.6735C2.07306 13.6242 2.02706 13.5598 1.9999 13.4868C1.98311 13.4145 1.98311 13.3392 1.9999 13.2668L2.46657 10.6668L9.30147 3.78527C9.32093 3.77866 9.34202 3.77866 9.36147 3.78527C9.38319 3.77858 9.40642 3.77858 9.42814 3.78527L12.0215 6.38527V6.45193V6.51193L5.2199 13.3135L2.55323 13.8002L2.4599 13.8135ZM3.46657 11.1068L3.18657 12.6268L4.66657 12.3668L10.6015 6.45193L9.36147 5.1986L3.46657 11.1068Z"
        fill="#858F9B" />
    <path fill-rule="evenodd" clip-rule="evenodd"
        d="M10.3066 2.80003L10.9733 2.13337C11.004 2.09158 11.0442 2.05769 11.0905 2.0345C11.1369 2.01132 11.1881 1.9995 11.24 2.00003C11.2847 1.99939 11.3291 2.00793 11.3704 2.02513C11.4116 2.04233 11.4489 2.06782 11.48 2.10003L13.7133 4.33337C13.7755 4.39532 13.8113 4.47893 13.8133 4.5667C13.8131 4.6103 13.8041 4.65341 13.7869 4.69348C13.7697 4.73355 13.7447 4.76978 13.7133 4.80003L13.0133 5.5067L10.3066 2.80003Z"
        fill="#858F9B" />
</svg>
