<svg width="40" height="40" viewBox="0 0 40 40" fill="none" xmlns="http://www.w3.org/2000/svg">
    <mask id="mask0_4082_20980" style="mask-type:alpha" maskUnits="userSpaceOnUse" x="0" y="0"
        width="40" height="40">
        <rect width="40" height="40" rx="20" fill="#C4C4C4" />
    </mask>
    <g mask="url(#mask0_4082_20980)">
        <path d="M40 0H0V40H40V0Z" fill="#F0F1F3" />
        <path
            d="M20 25.5889C14.0353 25.589 8.25205 27.6399 3.62 31.3978C2.30478 32.4899 1.093 33.701 0 35.0155L0 40H40V34.7078C38.8635 33.5301 37.6545 32.4246 36.38 31.3978C31.7479 27.6399 25.9647 25.589 20 25.5889Z"
            fill="#D2D8E0" />
        <path
            d="M20 22C21.4834 22 22.9334 21.5601 24.1668 20.736C25.4001 19.9119 26.3614 18.7406 26.9291 17.3701C27.4968 15.9997 27.6453 14.4917 27.3559 13.0368C27.0665 11.582 26.3522 10.2456 25.3033 9.1967C24.2544 8.14781 22.918 7.4335 21.4632 7.14411C20.0083 6.85472 18.5003 7.00325 17.1299 7.57091C15.7594 8.13856 14.5881 9.09986 13.764 10.3332C12.9399 11.5666 12.5 13.0166 12.5 14.5C12.5 16.4891 13.2902 18.3968 14.6967 19.8033C16.1032 21.2098 18.0109 22 20 22Z"
            fill="#D2D8E0" />
    </g>
</svg>
