<svg width="20" height="20" viewBox="0 0 20 20" fill="none" xmlns="http://www.w3.org/2000/svg">
    <path
        d="M17.2583 0.490939H2.7417C2.03243 0.475029 1.34572 0.740745 0.831888 1.22992C0.318054 1.7191 0.0189583 2.39191 0 3.10111V16.8991C0.0186145 17.6085 0.317656 18.2815 0.831567 18.7707C1.34548 19.26 2.03233 19.5256 2.7417 19.5093H17.2583C17.9677 19.5256 18.6545 19.26 19.1684 18.7707C19.6823 18.2815 19.9814 17.6085 20 16.8991V3.10111C19.9814 2.3918 19.6823 1.71877 19.1684 1.22952C18.6545 0.74027 17.9677 0.47468 17.2583 0.490939V0.490939ZM18.6211 16.8991C18.6118 17.251 18.4634 17.5848 18.2084 17.8275C17.9534 18.0701 17.6128 18.2018 17.2609 18.1937H2.74427C2.39237 18.2018 2.05173 18.0701 1.79675 17.8275C1.54177 17.5848 1.39332 17.251 1.38402 16.8991V13.8088C1.39978 13.7907 1.41747 13.7744 1.43669 13.7601C2.33657 13.0839 3.21405 12.4143 4.04156 11.7683C4.08399 11.7292 4.13799 11.7052 4.19541 11.6999C4.25968 11.7071 4.31995 11.7354 4.36661 11.7801C5.22701 12.4379 6.14651 13.1431 7.34502 14.0522C7.48747 14.1676 7.66437 14.2324 7.84769 14.2364C8.06563 14.2294 8.27227 14.1378 8.42391 13.9811C10.0803 12.4024 11.793 10.7737 13.5151 9.13183C13.5557 9.09014 13.5941 9.04621 13.6298 9.00027L13.6574 8.96606L13.6915 8.99368C13.7309 9.02657 13.7627 9.05157 13.7917 9.0792L14.0968 9.36996C15.5795 10.7816 17.1135 12.2419 18.6198 13.6812L18.6211 16.8991ZM18.6211 11.5999L18.6131 11.592L14.3098 7.49522C14.1474 7.31802 13.9224 7.21132 13.6825 7.1979C13.4452 7.21115 13.2222 7.31638 13.0613 7.49126C11.5549 8.92396 9.77249 10.6224 7.95433 12.359C7.91316 12.4014 7.8773 12.4487 7.84769 12.4998L7.82392 12.5353L7.48731 12.2722L6.75564 11.7144L6.19002 11.2828C5.70061 10.9092 5.19544 10.5237 4.69551 10.1475C4.55876 10.0389 4.3899 9.97879 4.21533 9.97645C4.0137 9.98196 3.81976 10.0546 3.66416 10.183C3.10371 10.6106 2.55239 11.0276 1.96827 11.4697L1.3853 11.9104V3.09583C1.39461 2.74396 1.54305 2.41013 1.79803 2.16748C2.05302 1.92483 2.39398 1.79315 2.74587 1.80128H17.2622C17.6141 1.79315 17.9547 1.92483 18.2097 2.16748C18.4647 2.41013 18.6131 2.74396 18.6224 3.09583L18.6211 11.5999Z"
        fill="#858F9B" />
    <path
        d="M6.78904 3.03128C6.23069 3.02869 5.68394 3.19184 5.21841 3.50012C4.75287 3.8084 4.38944 4.24794 4.17389 4.76301C3.95834 5.27808 3.9003 5.84554 4.00751 6.3935C4.11472 6.94147 4.38235 7.44526 4.77612 7.84111C5.036 8.1055 5.34596 8.31536 5.68799 8.45837C6.03002 8.60137 6.39712 8.67462 6.76784 8.67389C7.5161 8.67633 8.23483 8.38145 8.76565 7.85408C9.29648 7.32671 9.59606 6.61007 9.5985 5.86181C9.60095 5.11355 9.30587 4.39498 8.7785 3.86415C8.25113 3.33333 7.5344 3.03372 6.78615 3.03128H6.78904ZM6.78904 7.19781C6.52188 7.19986 6.26017 7.12244 6.03712 6.97538C5.81408 6.82832 5.63975 6.61822 5.53639 6.37186C5.43302 6.1255 5.40508 5.85399 5.45641 5.59181C5.50774 5.32962 5.63586 5.08862 5.8245 4.89944C5.95239 4.77262 6.10439 4.67245 6.27127 4.6047C6.43816 4.53695 6.61664 4.50299 6.79674 4.50477V4.46133V4.50477C7.15369 4.50634 7.49554 4.64962 7.74683 4.90313C7.99812 5.15664 8.13833 5.4996 8.13676 5.85655C8.13519 6.21349 7.99199 6.55519 7.73848 6.80647C7.48497 7.05776 7.14181 7.19805 6.78486 7.19648L6.78904 7.19781Z"
        fill="#858F9B" />
</svg>
