<svg width="24" height="24" viewBox="0 0 24 24" fill="none" xmlns="http://www.w3.org/2000/svg">
    <path
        d="M21.7983 12.3028L2.53355 21.9616C2.45524 22.0008 2.36543 22.01 2.28021 21.9892C2.08446 21.9409 1.9624 21.7428 2.01076 21.5448L3.99596 13.4335C4.0259 13.3115 4.11572 13.2125 4.23547 13.1733L7.63702 12.0057L4.23778 10.838C4.11802 10.7966 4.0282 10.6999 4.00057 10.5778L2.01076 2.45508C1.99004 2.36987 1.99925 2.28005 2.0384 2.20405C2.12822 2.02211 2.34931 1.94842 2.53355 2.03824L21.7983 11.6418C21.8696 11.6763 21.9272 11.7362 21.9641 11.8053C22.0539 11.9896 21.9802 12.2106 21.7983 12.3028ZM4.28153 4.7627L5.43995 9.49769L12.2384 11.8306C12.2914 11.8491 12.3352 11.8905 12.3536 11.9458C12.3858 12.0425 12.3352 12.1462 12.2384 12.1807L5.43995 14.5114L4.28614 19.2279L18.7491 11.9757L4.28153 4.7627Z"
        fill="white" fill-opacity="0.8" />
</svg>
