<svg width="14" height="14" viewBox="0 0 14 14" fill="none" xmlns="http://www.w3.org/2000/svg">
    <path
        d="M13.2511 0.358962L0.499044 5.91703C0.448522 5.94124 0.406033 5.97948 0.376646 6.02718C0.347258 6.07488 0.332214 6.13002 0.333308 6.18604C0.334401 6.24206 0.351587 6.29658 0.382814 6.34309C0.414041 6.38961 0.45799 6.42616 0.509418 6.44838L3.96253 8.39815C4.06207 8.45432 4.17649 8.47849 4.29024 8.46735C4.40399 8.45621 4.51156 8.41031 4.59831 8.3359C11.4453 2.43323 11.5527 2.36061 11.5942 2.40211C11.6357 2.44361 11.5697 2.55032 5.64684 9.22519C5.56617 9.31512 5.51708 9.42894 5.50705 9.54934C5.49702 9.66974 5.52659 9.79012 5.59127 9.89216L7.84542 13.5086C7.87084 13.557 7.90915 13.5975 7.95614 13.6255C8.00313 13.6535 8.05694 13.668 8.11164 13.6673C8.16633 13.6666 8.21977 13.6508 8.26603 13.6216C8.3123 13.5924 8.34958 13.551 8.37376 13.5019L13.6438 0.744322C13.6666 0.689671 13.6724 0.629461 13.6607 0.571448C13.6489 0.513436 13.62 0.460277 13.5778 0.41882C13.5355 0.377363 13.4818 0.349506 13.4236 0.338838C13.3654 0.32817 13.3053 0.335179 13.2511 0.358962Z"
        fill="#929DAA" />
</svg>
