<svg width="24" height="24" viewBox="0 0 24 24" fill="none" xmlns="http://www.w3.org/2000/svg">
    <path
        d="M18.7032 14.6968C18.5589 14.5303 18.3805 14.3968 18.18 14.3053C17.9796 14.2138 17.7618 14.1664 17.5415 14.1664C17.3212 14.1664 17.1034 14.2138 16.9029 14.3053C16.7025 14.3968 16.5241 14.5303 16.3797 14.6968C15.8367 15.2353 15.2937 15.7738 14.7582 16.3228C14.7345 16.3582 14.7039 16.3885 14.6682 16.4118C14.6326 16.4352 14.5926 16.4512 14.5506 16.4589C14.5087 16.4666 14.4657 16.4658 14.424 16.4566C14.3824 16.4474 14.343 16.43 14.3082 16.4053C13.9572 16.2133 13.5822 16.0588 13.2447 15.8488C11.6981 14.8461 10.3264 13.5965 9.18425 12.1498C8.58963 11.446 8.09913 10.6605 7.72775 9.8173C7.6878 9.74777 7.67415 9.66621 7.68929 9.58747C7.70444 9.50873 7.74736 9.43805 7.81025 9.3883C8.35325 8.8633 8.88275 8.3248 9.41675 7.7863C9.59189 7.64147 9.73289 7.45976 9.82967 7.25414C9.92646 7.04852 9.97664 6.82406 9.97664 6.5968C9.97664 6.36954 9.92646 6.14508 9.82967 5.93946C9.73289 5.73384 9.59189 5.55212 9.41675 5.4073C8.99225 4.9783 8.56775 4.5583 8.14325 4.1293C7.71875 3.7003 7.27175 3.2488 6.82775 2.8138C6.68261 2.64862 6.50391 2.51628 6.30358 2.42563C6.10325 2.33497 5.88589 2.28809 5.666 2.28809C5.44611 2.28809 5.22875 2.33497 5.02842 2.42563C4.82809 2.51628 4.64939 2.64862 4.50425 2.8138C3.95675 3.3523 3.43175 3.9043 2.87375 4.4353C2.37744 4.90125 2.07982 5.54055 2.04275 6.2203C1.99523 7.33517 2.19501 8.44674 2.62775 9.4753C3.45056 11.614 4.63873 13.5934 6.13925 15.3253C8.11297 17.6911 10.5673 19.61 13.3392 20.9548C14.5764 21.605 15.9319 21.9993 17.3247 22.1143C17.7884 22.1671 18.2579 22.108 18.694 21.942C19.1301 21.776 19.5201 21.508 19.8312 21.1603C20.2962 20.6398 20.8212 20.1643 21.3147 19.6603C21.4867 19.5152 21.6251 19.3345 21.7203 19.1306C21.8155 18.9267 21.8652 18.7046 21.8661 18.4796C21.8669 18.2546 21.8189 18.0321 21.7252 17.8276C21.6316 17.623 21.4946 17.4412 21.3237 17.2948C20.4507 16.4288 19.5772 15.5628 18.7032 14.6968Z"
        fill="#A1ACB8" />
</svg>
