<svg width="24" height="24" viewBox="0 0 24 24" fill="none" xmlns="http://www.w3.org/2000/svg">
    <path fill-rule="evenodd" clip-rule="evenodd"
        d="M16.4351 10.7578C16.5381 10.8241 16.6197 10.9188 16.6701 11.0305C16.7208 11.1426 16.7378 11.2669 16.7193 11.3885C16.7007 11.5101 16.6472 11.6237 16.5654 11.7156L12.1025 16.8167C12.0428 16.8851 11.9691 16.9401 11.8864 16.9777C11.8037 17.0153 11.7139 17.0348 11.623 17.0348C11.5322 17.0348 11.4424 17.0153 11.3597 16.9777C11.277 16.9401 11.2033 16.8851 11.1436 16.8167L6.68067 11.7156C6.59989 11.6234 6.54739 11.51 6.52947 11.3887C6.51155 11.2675 6.52895 11.1437 6.57961 11.0322C6.63027 10.9206 6.71204 10.826 6.8151 10.7597C6.91815 10.6934 7.03812 10.6583 7.16065 10.6585H9.71121V2.36756C9.7115 2.19868 9.77871 2.03681 9.89813 1.91739C10.0175 1.79798 10.1794 1.73076 10.3483 1.73047H12.8988C12.9827 1.73019 13.0659 1.74644 13.1435 1.77832C13.2211 1.81019 13.2917 1.85706 13.3511 1.91623C13.4106 1.97541 13.4578 2.04573 13.4901 2.12317C13.5224 2.20062 13.5391 2.28366 13.5392 2.36756V10.6563H16.0898C16.2123 10.6561 16.3322 10.6914 16.4351 10.7578ZM18.6414 19.5843V15.7585H21.1919V20.8596C21.1921 21.0271 21.1592 21.193 21.0952 21.3478C21.0311 21.5025 20.9372 21.6432 20.8187 21.7616C20.7003 21.8801 20.5596 21.974 20.4049 22.0381C20.2501 22.1021 20.0842 22.135 19.9167 22.1348H3.33484C2.99662 22.1348 2.67225 22.0005 2.43309 21.7613C2.19393 21.5221 2.05957 21.1978 2.05957 20.8596V15.7585H4.61012V19.5843H18.6414Z"
        fill="white" />
</svg>
