<svg width="24" height="24" viewBox="0 0 24 24" fill="none" xmlns="http://www.w3.org/2000/svg">
    <path
        d="M12 2C10.0222 2 8.08879 2.58649 6.4443 3.6853C4.79981 4.78412 3.51808 6.3459 2.76121 8.17316C2.00433 10.0004 1.8063 12.0111 2.19215 13.9509C2.578 15.8907 3.53041 17.6725 4.92894 19.0711C6.32746 20.4696 8.10929 21.422 10.0491 21.8078C11.9889 22.1937 13.9996 21.9957 15.8268 21.2388C17.6541 20.4819 19.2159 19.2002 20.3147 17.5557C21.4135 15.9112 22 13.9778 22 12C21.9969 9.34879 20.9423 6.80707 19.0676 4.93239C17.1929 3.0577 14.6512 2.00313 12 2ZM16.0445 14.8664C16.0832 14.905 16.1139 14.9509 16.1349 15.0015C16.1558 15.052 16.1666 15.1062 16.1666 15.1609C16.1666 15.2156 16.1558 15.2698 16.1349 15.3203C16.1139 15.3709 16.0832 15.4168 16.0445 15.4555L15.4555 16.0445C15.4168 16.0832 15.3709 16.1139 15.3203 16.1349C15.2698 16.1558 15.2156 16.1666 15.1609 16.1666C15.1062 16.1666 15.052 16.1558 15.0015 16.1349C14.9509 16.1139 14.905 16.0832 14.8664 16.0445L12 13.1818L9.13364 16.0445C9.09497 16.0832 9.04905 16.1139 8.99851 16.1349C8.94797 16.1558 8.8938 16.1666 8.83909 16.1666C8.78438 16.1666 8.73021 16.1558 8.67967 16.1349C8.62913 16.1139 8.58322 16.0832 8.54455 16.0445L7.95546 15.4545C7.91675 15.4159 7.88605 15.37 7.8651 15.3194C7.84416 15.2689 7.83337 15.2147 7.83337 15.16C7.83337 15.1053 7.84416 15.0511 7.8651 15.0006C7.88605 14.95 7.91675 14.9041 7.95546 14.8655L10.8182 12L7.95546 9.13364C7.91675 9.09497 7.88605 9.04905 7.8651 8.99851C7.84416 8.94797 7.83337 8.8938 7.83337 8.83909C7.83337 8.78438 7.84416 8.73021 7.8651 8.67967C7.88605 8.62913 7.91675 8.58321 7.95546 8.54454L8.54546 7.95545C8.58412 7.91675 8.63004 7.88605 8.68058 7.8651C8.73112 7.84415 8.78529 7.83337 8.84 7.83337C8.89471 7.83337 8.94888 7.84415 8.99942 7.8651C9.04996 7.88605 9.09588 7.91675 9.13455 7.95545L12 10.8182L14.8664 7.95182C14.905 7.91311 14.9509 7.88241 15.0015 7.86146C15.052 7.84052 15.1062 7.82974 15.1609 7.82974C15.2156 7.82974 15.2698 7.84052 15.3203 7.86146C15.3709 7.88241 15.4168 7.91311 15.4555 7.95182L16.0445 8.54091C16.0832 8.57958 16.1139 8.62549 16.1349 8.67603C16.1558 8.72657 16.1666 8.78074 16.1666 8.83545C16.1666 8.89016 16.1558 8.94433 16.1349 8.99487C16.1139 9.04541 16.0832 9.09133 16.0445 9.13L13.1818 12L16.0445 14.8664Z"
        fill="#A1ACB8" />
</svg>
