<svg width="28" height="24" viewBox="0 0 28 24" fill="none" xmlns="http://www.w3.org/2000/svg">
    <path
        d="M9.72 22.5C9.59245 22.4954 9.46832 22.4575 9.36 22.39C9.25188 22.3235 9.16242 22.2306 9.1 22.12C9.03338 22.0082 8.99878 21.8802 9 21.75V14.06L3.51 8.57C3.18548 8.24261 3.00236 7.80097 3 7.34V4.75C3 4.55109 3.07902 4.36032 3.21967 4.21967C3.36032 4.07902 3.55109 4 3.75 4H19.75C19.9489 4 20.1397 4.07902 20.2803 4.21967C20.421 4.36032 20.5 4.55109 20.5 4.75V7.34C20.5003 7.79955 20.3209 8.241 20 8.57L14.5 14.06V19.75C14.5005 19.89 14.4613 20.0272 14.387 20.1458C14.3127 20.2644 14.2062 20.3595 14.08 20.42L10.08 22.42C9.97782 22.4722 9.86476 22.4996 9.75 22.5H9.72ZM4.5 7.44L10.28 13.22C10.3512 13.2866 10.4059 13.3687 10.44 13.46C10.4799 13.5515 10.5003 13.6502 10.5 13.75V20.54L13 19.29V13.75C12.9997 13.6502 13.0201 13.5515 13.06 13.46C13.0941 13.3687 13.1488 13.2866 13.22 13.22L19 7.44V5.5H4.5V7.44Z"
        fill="#2C333A" />
    <rect x="12.5" y="0.5" width="15" height="15" rx="7.5" fill="#EF592E" />
    <path
        d="M18.8793 11.1611L15.8213 8.10308L16.5558 7.36858L18.8793 9.69208L23.8868 4.68408L24.6213 5.41908L18.8793 11.1611Z"
        fill="white" />
    <rect x="12.5" y="0.5" width="15" height="15" rx="7.5" stroke="white" />
</svg>
