<svg width="24" height="25" viewBox="0 0 24 25" fill="none" xmlns="http://www.w3.org/2000/svg">
    <path fill-rule="evenodd" clip-rule="evenodd"
        d="M7.41579 3.30762H19.9161C21.0645 3.30762 21.9996 4.2427 21.9996 5.3911V14.5579C21.9996 15.7063 21.0645 16.6414 19.9161 16.6414H7.41579C6.26754 16.6414 5.33246 15.7063 5.33246 14.5579V5.3911C5.33246 4.2427 6.26754 3.30762 7.41579 3.30762ZM19.9161 4.97438H7.41579C7.18584 4.97438 6.99922 5.161 6.99922 5.3911V13.257L9.29923 10.9578C9.8684 10.3879 10.796 10.3879 11.3659 10.9578L12.3743 11.9637L15.4694 8.24869C15.7461 7.91695 16.1511 7.7253 16.5827 7.72286C17.0169 7.73277 17.4211 7.9078 17.7003 8.23526L20.3328 11.3071V5.3911C20.3328 5.161 20.1462 4.97438 19.9161 4.97438ZM9.49907 9.14102C10.4183 9.14102 11.1657 8.39347 11.1657 7.47426C11.1657 6.55505 10.4183 5.8075 9.49907 5.8075C8.57985 5.8075 7.83231 6.55505 7.83231 7.47426C7.83231 8.39347 8.57985 9.14102 9.49907 9.14102ZM7.20819 17.8907C5.87408 17.8907 4.68738 17.0365 4.25646 15.7648L4.22731 15.669C4.12569 15.3322 4.08311 15.049 4.08311 14.7657V9.08376L2.06143 15.8323C1.80141 16.8249 2.39392 17.854 3.38806 18.1282L16.2743 21.5792C16.4351 21.6208 16.5959 21.6408 16.7543 21.6408C17.5843 21.6408 18.3427 21.09 18.5552 20.2782L19.306 17.8907H7.20819Z"
        fill="#EF592E" />
</svg>
