<svg width="87" height="80" viewBox="0 0 87 80" fill="none" xmlns="http://www.w3.org/2000/svg">
    <path
        d="M43.433 79.4754C67.1442 79.4754 86.366 74.161 86.366 67.6054C86.366 61.0497 67.1442 55.7354 43.433 55.7354C19.7218 55.7354 0.5 61.0497 0.5 67.6054C0.5 74.161 19.7218 79.4754 43.433 79.4754Z"
        fill="#F8F9FB" />
    <path
        d="M57.6764 8.25635H29.6924C24.1695 8.25635 19.6924 12.7335 19.6924 18.2563V57.8573C19.6924 63.3802 24.1695 67.8573 29.6924 67.8573H57.6764C63.1992 67.8573 67.6764 63.3802 67.6764 57.8573V18.2563C67.6764 12.7335 63.1992 8.25635 57.6764 8.25635Z"
        fill="#FDFDFD" />
    <path
        d="M62.6255 68.4894H24.7435C23.2371 68.4875 21.793 67.8883 20.7278 66.8231C19.6626 65.7579 19.0634 64.3138 19.0615 62.8074V13.3074C19.0644 11.8017 19.6641 10.3586 20.7292 9.29424C21.7943 8.22993 23.2378 7.63124 24.7435 7.62939H62.6255C64.1319 7.63019 65.5765 8.2284 66.6424 9.29283C67.7084 10.3573 68.3086 11.801 68.3115 13.3074V62.8074C68.3097 64.3145 67.7099 65.7592 66.6438 66.8245C65.5778 67.8898 64.1326 68.4886 62.6255 68.4894ZM24.7435 8.88939C23.5716 8.89045 22.448 9.35647 21.6193 10.1852C20.7906 11.0138 20.3246 12.1375 20.3235 13.3094V62.8094C20.3246 63.9813 20.7906 65.105 21.6193 65.9336C22.448 66.7623 23.5716 67.2283 24.7435 67.2294H62.6255C63.7975 67.2283 64.9211 66.7623 65.7498 65.9336C66.5784 65.105 67.0445 63.9813 67.0455 62.8094V13.3094C67.0445 12.1375 66.5784 11.0138 65.7498 10.1852C64.9211 9.35647 63.7975 8.89045 62.6255 8.88939H24.7435Z"
        fill="#72818D" />
    <path
        d="M61.132 52.2007H27.25C26.1454 52.2007 25.25 53.0961 25.25 54.2007V54.2417C25.25 55.3463 26.1454 56.2417 27.25 56.2417H61.132C62.2366 56.2417 63.132 55.3463 63.132 54.2417V54.2007C63.132 53.0961 62.2366 52.2007 61.132 52.2007Z"
        fill="#ECEFF4" />
    <path
        d="M61.132 41.5938H27.25C26.1454 41.5938 25.25 42.4892 25.25 43.5938V43.6347C25.25 44.7393 26.1454 45.6347 27.25 45.6347H61.132C62.2366 45.6347 63.132 44.7393 63.132 43.6347V43.5938C63.132 42.4892 62.2366 41.5938 61.132 41.5938Z"
        fill="#ECEFF4" />
    <path
        d="M61.132 29.9766H27.25C26.1454 29.9766 25.25 30.872 25.25 31.9766V32.0176C25.25 33.1221 26.1454 34.0176 27.25 34.0176H61.132C62.2366 34.0176 63.132 33.1221 63.132 32.0176V31.9766C63.132 30.872 62.2366 29.9766 61.132 29.9766Z"
        fill="#ECEFF4" />
    <path
        d="M61.132 19.3696H27.25C26.1454 19.3696 25.25 20.2651 25.25 21.3696V21.4106C25.25 22.5152 26.1454 23.4106 27.25 23.4106H61.132C62.2366 23.4106 63.132 22.5152 63.132 21.4106V21.3696C63.132 20.2651 62.2366 19.3696 61.132 19.3696Z"
        fill="#ECEFF4" />
    <path
        d="M55.5548 46.1403C65.0392 46.1403 72.7278 38.5645 72.7278 29.2193C72.7278 19.8741 65.0392 12.2983 55.5548 12.2983C46.0704 12.2983 38.3818 19.8741 38.3818 29.2193C38.3818 38.5645 46.0704 46.1403 55.5548 46.1403Z"
        fill="white" />
    <path
        d="M55.5549 42.0985C62.8075 42.0985 68.6869 36.2191 68.6869 28.9665C68.6869 21.7139 62.8075 15.8345 55.5549 15.8345C48.3022 15.8345 42.4229 21.7139 42.4229 28.9665C42.4229 36.2191 48.3022 42.0985 55.5549 42.0985Z"
        fill="white" />
    <path
        d="M55.4504 42.5013C52.8531 42.5013 50.3142 41.7311 48.1546 40.2882C45.9951 38.8452 44.3119 36.7943 43.318 34.3947C42.324 31.9951 42.064 29.3547 42.5707 26.8074C43.0774 24.26 44.3281 21.9201 46.1646 20.0836C48.0012 18.247 50.3411 16.9963 52.8884 16.4896C55.4358 15.9829 58.0762 16.243 60.4758 17.2369C62.8753 18.2309 64.9263 19.914 66.3692 22.0736C67.8122 24.2331 68.5824 26.772 68.5824 29.3693C68.5784 32.8509 67.1936 36.1888 64.7317 38.6507C62.2698 41.1125 58.932 42.4973 55.4504 42.5013ZM55.4504 17.2463C53.0529 17.2463 50.7092 17.9573 48.7157 19.2892C46.7223 20.6212 45.1686 22.5144 44.2511 24.7294C43.3336 26.9444 43.0936 29.3818 43.5613 31.7332C44.029 34.0846 45.1835 36.2446 46.8788 37.9399C48.5741 39.6352 50.734 40.7897 53.0855 41.2574C55.4369 41.7251 57.8743 41.4851 60.0893 40.5676C62.3043 39.6501 64.1975 38.0964 65.5294 36.1029C66.8614 34.1095 67.5724 31.7658 67.5724 29.3683C67.5687 26.1545 66.2903 23.0734 64.0178 20.8009C61.7453 18.5283 58.6642 17.25 55.4504 17.2463Z"
        fill="#72818D" />
    <mask id="mask0_13975_53952" style="mask-type:alpha" maskUnits="userSpaceOnUse" x="44" y="18"
        width="23" height="23">
        <circle cx="55.3184" cy="29.2373" r="11" fill="#C4C4C4" />
    </mask>
    <g mask="url(#mask0_13975_53952)">
        <path
            d="M56.9864 21.3892H43.3494C41.6754 21.3892 40.3184 22.746 40.3184 24.4197C40.3184 26.0934 41.6754 27.4502 43.3494 27.4502H56.9864C58.6603 27.4502 60.0174 26.0934 60.0174 24.4197C60.0174 22.746 58.6603 21.3892 56.9864 21.3892Z"
            fill="#F5F7F9" />
        <path
            d="M57.2394 34.0161H43.0964C41.5621 34.0161 40.3184 35.2599 40.3184 36.7941C40.3184 38.3284 41.5621 39.5721 43.0964 39.5721H57.2394C58.7736 39.5721 60.0174 38.3284 60.0174 36.7941C60.0174 35.2599 58.7736 34.0161 57.2394 34.0161Z"
            fill="#F5F7F9" />
    </g>
    <path d="M67.984 40.4633L65.9277 42.5195L69.3544 45.9462L71.4106 43.8899L67.984 40.4633Z"
        fill="white" />
    <path
        d="M73.9757 44.4C72.8401 43.2644 70.999 43.2642 69.8635 44.3997C68.7281 45.5351 68.7282 47.3762 69.8639 48.5118L73.6328 52.2807C74.7684 53.4164 76.6095 53.4165 77.7449 52.2811C78.8804 51.1456 78.8802 49.3045 77.7446 48.1689L73.9757 44.4Z"
        fill="#BDC9D4" />
    <path
        d="M78.0143 48.4385L73.7053 44.1285C73.3659 43.7912 72.9375 43.5574 72.4703 43.4544C72.003 43.3513 71.5161 43.3833 71.0663 43.5465L68.2663 40.7465C71.2628 37.4545 72.8715 33.132 72.7564 28.6819C72.6413 24.2318 70.8113 19.9983 67.6486 16.8655C64.4859 13.7328 60.2352 11.9432 55.7842 11.8705C51.3332 11.7977 47.0262 13.4476 43.7629 16.4753C40.4995 19.503 38.5322 23.6745 38.2718 28.1185C38.0114 32.5625 39.478 36.9352 42.3654 40.3233C45.2528 43.7115 49.3376 45.8531 53.7666 46.3007C58.1956 46.7483 62.6264 45.4674 66.1333 42.7255L69.0063 45.5985C68.8432 46.0484 68.8114 46.5354 68.9146 47.0027C69.0179 47.4699 69.2518 47.8982 69.5893 48.2375L73.8983 52.5465C74.1328 52.7811 74.4112 52.9673 74.7176 53.0943C75.0241 53.2213 75.3526 53.2866 75.6843 53.2866C76.016 53.2866 76.3445 53.2213 76.6509 53.0943C76.9574 52.9673 77.2358 52.7811 77.4703 52.5465L78.0103 52.0065C78.2449 51.772 78.4311 51.4936 78.558 51.1872C78.685 50.8807 78.7504 50.5522 78.7504 50.2205C78.7504 49.8888 78.685 49.5603 78.558 49.2539C78.4311 48.9474 78.2449 48.669 78.0103 48.4345L78.0143 48.4385ZM39.6453 29.2185C39.6453 26.0718 40.5784 22.9958 42.3266 20.3794C44.0748 17.763 46.5596 15.7238 49.4668 14.5196C52.374 13.3154 55.5729 13.0003 58.6592 13.6142C61.7454 14.2281 64.5803 15.7434 66.8054 17.9684C69.0304 20.1935 70.5457 23.0284 71.1596 26.1146C71.7735 29.2009 71.4584 32.3998 70.2542 35.307C69.05 38.2142 67.0108 40.699 64.3944 42.4472C61.778 44.1954 58.702 45.1285 55.5553 45.1285C51.3372 45.1235 47.2934 43.4456 44.3108 40.463C41.3282 37.4804 39.6503 33.4366 39.6453 29.2185ZM67.9823 41.5345L70.3373 43.8895L69.3523 44.8745L66.9973 42.5195L67.9823 41.5345ZM77.1203 51.1175L76.5813 51.6575C76.3409 51.8875 76.021 52.0158 75.6883 52.0158C75.3556 52.0158 75.0357 51.8875 74.7953 51.6575L70.4823 47.3485C70.3648 47.2314 70.2716 47.0922 70.208 46.939C70.1443 46.7857 70.1116 46.6214 70.1116 46.4555C70.1116 46.2896 70.1443 46.1253 70.208 45.9721C70.2716 45.8188 70.3648 45.6797 70.4823 45.5625L71.0213 45.0225C71.2583 44.7859 71.5794 44.6531 71.9143 44.6531C72.2491 44.6531 72.5703 44.7859 72.8073 45.0225L77.1163 49.3325C77.2336 49.4496 77.3267 49.5888 77.3903 49.7419C77.4538 49.895 77.4865 50.0592 77.4865 50.225C77.4865 50.3908 77.4538 50.555 77.3903 50.7081C77.3267 50.8613 77.2336 51.0004 77.1163 51.1175H77.1203Z"
        fill="#72818D" />
    <path
        d="M53.8458 35.5465C53.8448 35.3239 53.889 35.1034 53.9758 34.8985C54.0584 34.7004 54.1798 34.5209 54.3328 34.3705C54.6537 34.058 55.0849 33.8848 55.5328 33.8885C55.7587 33.8868 55.9825 33.931 56.1908 34.0185C56.3891 34.1011 56.57 34.2205 56.7238 34.3705C56.8776 34.5215 57.0008 34.7008 57.0868 34.8985C57.1758 35.1036 57.2217 35.3249 57.2217 35.5485C57.2217 35.7721 57.1758 35.9933 57.0868 36.1985C57 36.3942 56.8768 36.5717 56.7238 36.7215C56.5706 36.8706 56.3895 36.9882 56.1908 37.0675C55.9817 37.1513 55.7581 37.1934 55.5328 37.1915C55.3042 37.1941 55.0773 37.1519 54.8648 37.0675C54.5611 36.9464 54.301 36.7362 54.119 36.4645C53.9369 36.1929 53.8414 35.8725 53.8448 35.5455L53.8458 35.5465ZM56.9008 22.0225V27.9455C56.9006 28.5681 56.8672 29.1903 56.8008 29.8095C56.7342 30.4235 56.6428 31.0618 56.5268 31.7245H54.6008C54.4835 31.0625 54.3918 30.4241 54.3258 29.8095C54.2594 29.1903 54.226 28.5681 54.2258 27.9455V22.0225H56.9008Z"
        fill="#EF592E" />
    <path
        d="M71.7871 6.8543C71.6584 6.85466 71.5327 6.81567 71.4268 6.74256C71.3209 6.66945 71.2399 6.56572 71.1946 6.44527C71.1494 6.32481 71.142 6.1934 71.1735 6.06865C71.2051 5.9439 71.274 5.83177 71.3711 5.7473L74.6191 2.9143C74.6816 2.8598 74.7542 2.81814 74.8328 2.79172C74.9114 2.76529 74.9945 2.7546 75.0772 2.76026C75.1599 2.76593 75.2407 2.78783 75.315 2.82473C75.3893 2.86162 75.4556 2.91279 75.5101 2.9753C75.5646 3.03781 75.6062 3.11044 75.6326 3.18904C75.6591 3.26765 75.6698 3.35069 75.6641 3.43343C75.6584 3.51617 75.6365 3.59698 75.5996 3.67125C75.5627 3.74552 75.5116 3.8118 75.4491 3.8663L72.2011 6.6993C72.0865 6.79959 71.9393 6.8547 71.7871 6.8543Z"
        fill="#72818D" />
    <path
        d="M73.4096 9.1225C73.244 9.12589 73.0837 9.06406 72.9633 8.95034C72.8429 8.83662 72.7721 8.68013 72.766 8.51463C72.76 8.34914 72.8193 8.18791 72.9311 8.06572C73.0428 7.94353 73.1982 7.87018 73.3635 7.8615L77.7925 7.5345C77.8754 7.52741 77.9589 7.53695 78.038 7.56257C78.1171 7.58819 78.1903 7.62937 78.2533 7.68369C78.3163 7.738 78.3677 7.80436 78.4047 7.87886C78.4417 7.95336 78.4634 8.03449 78.4685 8.1175C78.4807 8.2844 78.4261 8.4493 78.3168 8.57603C78.2075 8.70276 78.0524 8.78096 77.8856 8.7935L73.4566 9.1205L73.4096 9.1225Z"
        fill="#72818D" />
    <path
        d="M69.466 5.4385C69.2987 5.43824 69.1383 5.37167 69.0201 5.25339C68.9018 5.13511 68.8352 4.97477 68.835 4.8075V0.6315C68.835 0.464016 68.9015 0.303391 69.0199 0.184962C69.1383 0.0665328 69.299 0 69.4664 0C69.6339 0 69.7946 0.0665328 69.913 0.184962C70.0314 0.303391 70.0979 0.464016 70.0979 0.6315V4.8065C70.0979 4.8895 70.0816 4.97168 70.0499 5.04836C70.0181 5.12503 69.9715 5.19471 69.9128 5.25339C69.8542 5.31208 69.7845 5.35863 69.7078 5.39039C69.6311 5.42215 69.549 5.4385 69.466 5.4385Z"
        fill="#72818D" />
</svg>
