<svg width="25" height="24" viewBox="0 0 25 24" fill="none" xmlns="http://www.w3.org/2000/svg">
    <path
        d="M22.187 20.314L16.756 14.888C17.9207 13.349 18.458 11.4253 18.2593 9.50545C18.0607 7.58564 17.141 5.81273 15.6858 4.54476C14.2307 3.27679 12.3487 2.60824 10.4197 2.67412C8.49078 2.74 6.65872 3.53541 5.2935 4.89971C3.92828 6.26401 3.13162 8.09554 3.06444 10.0244C2.99725 11.9533 3.66451 13.8358 4.9315 15.2918C6.19849 16.7478 7.97081 17.6688 9.89049 17.8687C11.8102 18.0686 13.7342 17.5326 15.274 16.369L20.695 21.786L22.187 20.314ZM10.693 15.814C9.60351 15.8144 8.53842 15.4917 7.63237 14.8867C6.72632 14.2817 6.02002 13.4216 5.60283 12.4152C5.18563 11.4088 5.07632 10.3012 5.28862 9.23266C5.50092 8.16408 6.02535 7.18245 6.79558 6.41195C7.5658 5.64144 8.5472 5.11664 9.61571 4.90395C10.6842 4.69126 11.7918 4.80023 12.7984 5.21706C13.805 5.63389 14.6653 6.33986 15.2706 7.24569C15.8759 8.15152 16.199 9.21652 16.199 10.306C16.1974 11.766 15.6169 13.1657 14.5847 14.1983C13.5525 15.2308 12.153 15.8119 10.693 15.814Z"
        fill="#858F9B" />
</svg>
