<svg width="170" height="129" viewBox="0 0 170 129" fill="none" xmlns="http://www.w3.org/2000/svg">
    <path
        d="M81.4948 113.72C126.503 113.72 162.99 103.633 162.99 91.1888C162.99 78.745 126.503 68.6572 81.4948 68.6572C36.4862 68.6572 -0.000488281 78.745 -0.000488281 91.1888C-0.000488281 103.633 36.4862 113.72 81.4948 113.72Z"
        fill="#F8F9FB" />
    <path
        d="M134.681 13.8373C134.437 13.838 134.198 13.764 133.997 13.6252C133.796 13.4864 133.642 13.2895 133.557 13.0609C133.471 12.8322 133.457 12.5828 133.517 12.346C133.576 12.1092 133.707 11.8964 133.891 11.736L140.057 6.35841C140.175 6.25497 140.313 6.1759 140.463 6.12573C140.612 6.07557 140.769 6.05528 140.926 6.06603C141.083 6.07678 141.237 6.11836 141.378 6.1884C141.519 6.25843 141.645 6.35555 141.748 6.47421C141.852 6.59286 141.931 6.73073 141.981 6.87994C142.031 7.02915 142.051 7.18678 142.04 7.34383C142.03 7.50088 141.988 7.65428 141.918 7.79526C141.848 7.93624 141.751 8.06205 141.632 8.1655L135.467 13.5431C135.25 13.7335 134.97 13.8381 134.681 13.8373Z"
        fill="#CFD3D7" />
    <path
        d="M137.762 18.1427C137.448 18.1491 137.143 18.0317 136.915 17.8159C136.686 17.6 136.552 17.303 136.54 16.9888C136.529 16.6747 136.641 16.3686 136.854 16.1367C137.066 15.9048 137.361 15.7655 137.675 15.749L146.082 15.1283C146.239 15.1149 146.397 15.133 146.548 15.1816C146.698 15.2303 146.837 15.3084 146.956 15.4115C147.076 15.5146 147.173 15.6406 147.244 15.782C147.314 15.9234 147.355 16.0774 147.365 16.235C147.388 16.5518 147.284 16.8648 147.077 17.1054C146.869 17.3459 146.575 17.4944 146.258 17.5182L137.851 18.1389L137.762 18.1427Z"
        fill="#CFD3D7" />
    <path
        d="M130.275 11.1498C129.957 11.1493 129.653 11.0229 129.429 10.7984C129.204 10.5739 129.078 10.2695 129.077 9.952V2.02513C129.077 1.70721 129.203 1.40231 129.428 1.17751C129.653 0.952708 129.958 0.826416 130.276 0.826416C130.594 0.826416 130.899 0.952708 131.123 1.17751C131.348 1.40231 131.475 1.70721 131.475 2.02513V9.9501C131.475 10.1076 131.444 10.2636 131.383 10.4092C131.323 10.5547 131.235 10.687 131.123 10.7984C131.012 10.9098 130.88 10.9982 130.734 11.0584C130.588 11.1187 130.432 11.1498 130.275 11.1498Z"
        fill="#CFD3D7" />
    <path fill-rule="evenodd" clip-rule="evenodd"
        d="M122.338 17.9102H77.2019C72.171 17.9102 67.1401 17.9131 62.1102 17.9161C52.0534 17.922 42.0005 17.9279 31.9595 17.9102C29.2449 17.9102 27.0094 18.8948 25.1731 20.8642C23.8158 22.3013 23.8957 23.5521 25.386 24.8562C25.7187 25.1489 26.058 25.435 26.3973 25.7211C26.7366 26.0072 27.076 26.2933 27.4086 26.586C31.4557 30.0367 35.5084 33.476 39.5603 36.9145C50.6959 46.3646 61.8248 55.8089 72.8107 65.4679C76.4035 68.6082 77.9736 68.6082 81.5664 65.4413C91.8657 56.3662 102.325 47.4774 112.784 38.5886L112.785 38.5871C118.161 34.0367 123.536 29.4864 128.885 24.9094C130.428 23.5788 130.508 22.3279 129.124 20.8376C127.288 18.8948 125.026 17.9102 122.338 17.9102ZM22.7778 32.7879V92.2683C23.1362 92.7045 23.2938 93.2228 23.4537 93.7484C23.567 94.1207 23.6814 94.4967 23.869 94.8498C25.5722 97.6708 28.0206 99.2143 31.2674 99.5071C31.6134 99.5337 31.986 99.5337 32.332 99.5337H121.965C125.851 99.5337 128.751 97.9103 130.588 94.4506C131.226 93.1998 131.519 91.8691 131.519 90.4586V33.6395C131.519 32.6282 131.12 31.8564 130.215 31.404C129.204 30.8983 128.326 31.2443 127.501 31.9363C124.786 34.2516 122.065 36.5669 119.344 38.8823C116.623 41.1976 113.901 43.513 111.187 45.8283C101.952 53.6792 92.7172 61.5567 83.5889 69.5673C79.5437 73.1068 74.8066 73.16 70.7614 69.5939C60.422 60.5096 49.9335 51.5893 39.441 42.6656C35.9167 39.6683 32.3919 36.6706 28.8722 33.6661C28.2601 33.1605 27.6214 32.6282 27.0093 32.0959C25.2529 30.6322 23.9488 30.8451 22.7778 32.7879Z"
        fill="#CFD3D7" />
    <path
        d="M123.977 113.338C141.98 113.338 156.574 98.9576 156.574 81.2185C156.574 63.4795 141.98 49.0991 123.977 49.0991C105.973 49.0991 91.3789 63.4795 91.3789 81.2185C91.3789 98.9576 105.973 113.338 123.977 113.338Z"
        fill="white" />
    <path
        d="M123.977 105.666C137.744 105.666 148.904 94.5055 148.904 80.7386C148.904 66.9718 137.744 55.8115 123.977 55.8115C110.21 55.8115 99.0498 66.9718 99.0498 80.7386C99.0498 94.5055 110.21 105.666 123.977 105.666Z"
        fill="white" />
    <path
        d="M123.78 106.431C118.85 106.431 114.03 104.969 109.931 102.23C105.832 99.4914 102.637 95.5983 100.75 91.0435C98.8633 86.4886 98.3697 81.4766 99.3315 76.6412C100.293 71.8059 102.667 67.3643 106.154 63.8781C109.64 60.392 114.081 58.0179 118.917 57.0561C123.752 56.0943 128.764 56.5879 133.319 58.4746C137.874 60.3613 141.767 63.5563 144.506 67.6555C147.245 71.7548 148.707 76.5742 148.707 81.5043C148.699 88.1131 146.071 94.449 141.397 99.1221C136.724 103.795 130.388 106.424 123.78 106.431ZM123.78 58.4924C119.229 58.4924 114.78 59.8419 110.996 62.3703C107.212 64.8987 104.263 68.4923 102.521 72.6969C100.78 76.9014 100.324 81.5279 101.212 85.9914C102.1 90.4549 104.291 94.5549 107.509 97.7729C110.727 100.991 114.827 103.182 119.291 104.07C123.754 104.958 128.381 104.502 132.585 102.761C136.79 101.019 140.383 98.07 142.912 94.286C145.44 90.5021 146.79 86.0533 146.79 81.5024C146.783 75.4019 144.356 69.5533 140.042 65.2397C135.729 60.926 129.88 58.4995 123.78 58.4924Z"
        fill="#CFD3D7" />
    <path d="M147.568 102.561L143.665 106.464L150.169 112.968L154.073 109.065L147.568 102.561Z"
        fill="white" />
    <path
        d="M158.943 110.033C156.787 107.877 153.292 107.877 151.137 110.032C148.982 112.187 148.982 115.682 151.138 117.838L158.292 124.992C160.447 127.148 163.942 127.148 166.097 124.993C168.253 122.837 168.252 119.342 166.097 117.187L158.943 110.033Z"
        fill="#BDC9D4" />
    <path
        d="M166.609 117.699L158.429 109.518C157.785 108.878 156.972 108.434 156.085 108.239C155.198 108.043 154.274 108.104 153.42 108.413L148.105 103.099C153.793 96.8496 156.847 88.6447 156.628 80.1975C156.41 71.7504 152.936 63.7143 146.933 57.7677C140.929 51.8212 132.86 48.4242 124.411 48.2861C115.963 48.1481 107.787 51.2797 101.593 57.027C95.3981 62.7742 91.6637 70.6926 91.1694 79.1281C90.6751 87.5636 93.4591 95.8639 98.94 102.295C104.421 108.727 112.175 112.792 120.582 113.641C128.989 114.491 137.399 112.06 144.056 106.855L149.51 112.309C149.2 113.163 149.14 114.087 149.336 114.974C149.532 115.861 149.976 116.674 150.616 117.318L158.796 125.497C159.241 125.943 159.769 126.296 160.351 126.537C160.933 126.778 161.556 126.902 162.186 126.902C162.815 126.902 163.439 126.778 164.021 126.537C164.602 126.296 165.131 125.943 165.576 125.497L166.601 124.472C167.046 124.027 167.4 123.499 167.641 122.917C167.882 122.335 168.006 121.712 168.006 121.082C168.006 120.452 167.882 119.829 167.641 119.247C167.4 118.665 167.046 118.137 166.601 117.692L166.609 117.699ZM93.7766 81.2161C93.7766 75.2431 95.5479 69.4041 98.8663 64.4377C102.185 59.4713 106.901 55.6005 112.42 53.3147C117.938 51.0289 124.01 50.4308 129.869 51.5961C135.727 52.7614 141.108 55.6377 145.332 59.8613C149.555 64.0849 152.432 69.466 153.597 75.3243C154.762 81.1826 154.164 87.2549 151.878 92.7733C149.593 98.2917 145.722 103.008 140.755 106.327C135.789 109.645 129.95 111.416 123.977 111.416C115.97 111.407 108.294 108.222 102.633 102.56C96.9711 96.8988 93.7862 89.2228 93.7766 81.2161ZM147.566 104.594L152.036 109.065L150.166 110.934L145.696 106.464L147.566 104.594ZM164.912 122.785L163.888 123.81C163.432 124.246 162.825 124.49 162.193 124.49C161.562 124.49 160.955 124.246 160.498 123.81L152.311 115.63C152.088 115.408 151.911 115.144 151.791 114.853C151.67 114.562 151.608 114.25 151.608 113.935C151.608 113.62 151.67 113.309 151.791 113.018C151.911 112.727 152.088 112.463 152.311 112.24L153.334 111.215C153.784 110.766 154.394 110.514 155.03 110.514C155.665 110.514 156.275 110.766 156.725 111.215L164.904 119.396C165.127 119.619 165.303 119.883 165.424 120.174C165.545 120.464 165.607 120.776 165.607 121.091C165.607 121.405 165.545 121.717 165.424 122.008C165.303 122.298 165.127 122.562 164.904 122.785H164.912Z"
        fill="#CFD3D7" />
    <path
        d="M120.732 93.2315C120.73 92.809 120.814 92.3905 120.979 92.0015C121.136 91.6256 121.366 91.2848 121.656 90.9992C122.266 90.4061 123.084 90.0773 123.934 90.0843C124.363 90.0811 124.788 90.1651 125.183 90.3311C125.56 90.4879 125.903 90.7146 126.195 90.9992C126.487 91.286 126.721 91.6263 126.884 92.0015C127.053 92.3909 127.14 92.8109 127.14 93.2353C127.14 93.6598 127.053 94.0797 126.884 94.4691C126.719 94.8407 126.485 95.1775 126.195 95.4619C125.904 95.7451 125.56 95.9682 125.183 96.1187C124.786 96.2777 124.362 96.3577 123.934 96.3541C123.5 96.359 123.07 96.279 122.666 96.1187C122.09 95.8888 121.596 95.4898 121.251 94.9742C120.905 94.4585 120.724 93.8503 120.73 93.2296L120.732 93.2315ZM126.531 67.5603V78.8033C126.531 79.9853 126.467 81.1664 126.341 82.3416C126.215 83.5071 126.041 84.7187 125.821 85.9766H122.165C121.942 84.72 121.768 83.5083 121.643 82.3416C121.517 81.1664 121.454 79.9853 121.453 78.8033V67.5603H126.531Z"
        fill="#3777F3" />
</svg>
